<?xml version="1.0" encoding="UTF-8"?><svg id="Layer_2" xmlns="http://www.w3.org/2000/svg" viewBox="0 0 765.29 178.53"><defs><style>.cls-1,.cls-2{fill:#f3f2f3;}.cls-2{fill-rule:evenodd;}</style></defs><g id="Layer_1-2"><polygon class="cls-2" points="19.88 19.89 42.97 19.89 42.97 76.42 135.29 76.42 135.29 0 85.93 0 85.93 19.89 115.4 19.89 115.4 56.54 62.85 56.54 62.85 0 0 0 0 158.37 19.88 158.37 19.88 19.89"/><polygon class="cls-2" points="158.37 19.89 178.25 19.89 178.25 178.25 115.4 178.25 115.4 121.71 62.84 121.71 62.84 158.37 92.32 158.37 92.32 178.25 42.96 178.25 42.96 101.83 135.29 101.83 135.29 158.37 158.37 158.37 158.37 19.89"/><polygon class="cls-1" points="765.29 0 765.29 19.43 732.85 19.43 732.85 111.16 713.25 111.16 713.25 19.43 680.81 19.43 680.81 0 765.29 0"/><rect class="cls-1" x="644.09" width="17.62" height="20.26"/><rect class="cls-1" x="643.26" y="32.77" width="19.43" height="78.38"/><path class="cls-1" d="M585.63,0c6.26,0,11.64,.9,16.14,2.72,4.5,1.81,8.21,4.23,11.11,7.24,2.91,3.02,5.05,6.56,6.42,10.62,1.37,4.07,2.06,8.29,2.06,12.68,0,3.52-.44,7-1.32,10.46-.88,3.46-2.25,6.7-4.12,9.72-1.86,3.02-4.28,5.68-7.24,7.99-2.97,2.31-6.59,4.06-10.87,5.27l25.86,44.46h-21.57l-25.36-42.98h-28.98c-1.87,0-2.8,.93-2.8,2.8v40.18h-19.43v-43.97c0-6.26,1.38-10.76,4.12-13.51,2.75-2.75,7.19-4.12,13.34-4.12h43.3c2.75,0,5.11-.44,7.09-1.32,1.97-.88,3.57-2.03,4.77-3.46,1.2-1.43,2.11-3.07,2.72-4.95,.6-1.87,.91-3.79,.91-5.76,0-3.95-1.24-7.39-3.71-10.29-2.47-2.91-6.39-4.36-11.78-4.36h-60.93V0h60.27Z"/><path class="cls-1" d="M498.85,64.64c-2.86-4.12-6.92-7.27-12.19-9.47,5.27-2.08,9.25-5.1,11.94-9.06,2.69-3.95,4.03-9.16,4.03-15.64,0-4.5-.71-8.62-2.14-12.35-1.43-3.73-3.65-6.94-6.67-9.64-3.02-2.69-6.86-4.77-11.53-6.26C477.64,.74,472.01,0,465.42,0h-48.9c-6.15,0-9.22,3.02-9.22,9.05V102.1c0,6.04,3.07,9.06,9.22,9.06h49.4c6.59,0,12.21-.77,16.88-2.3,4.67-1.54,8.51-3.65,11.53-6.34,3.02-2.69,5.24-5.9,6.67-9.64,1.42-3.73,2.14-7.85,2.14-12.35,0-6.48-1.43-11.78-4.28-15.89m-72.46-43.56c0-1.32,.71-1.98,2.14-1.98h37.54c5.93,0,10.23,1.32,12.93,3.95,2.69,2.64,4.04,6.15,4.04,10.54,0,8.89-5.71,13.34-17.13,13.34h-39.52V21.08Zm53.02,67.02c-2.75,2.52-7.08,3.79-13.01,3.79h-37.87c-1.43,0-2.14-.6-2.14-1.81v-27.01h40.01c11.41,0,17.12,4.77,17.12,14.33,0,4.61-1.37,8.18-4.12,10.71"/><rect class="cls-1" x="361.85" width="17.62" height="20.26"/><rect class="cls-1" x="361.02" y="32.77" width="19.43" height="78.38"/><polygon class="cls-1" points="257.77 0 257.77 45.29 314.59 45.29 314.59 0 334.18 0 334.18 111.16 314.59 111.16 314.59 64.72 257.77 64.72 257.77 111.16 238.34 111.16 238.34 0 257.77 0"/><path class="cls-1" d="M758.17,139.89l-1.61-2.8h-.87v2.8h-1.15v-7h2.42c.54,0,.99,.09,1.37,.28,.37,.19,.65,.44,.84,.76,.18,.31,.28,.67,.28,1.06,0,.46-.13,.87-.4,1.24-.27,.37-.67,.63-1.22,.76l1.73,2.9h-1.37Zm-2.48-3.72h1.27c.43,0,.76-.11,.97-.32,.22-.22,.33-.51,.33-.87s-.11-.65-.32-.85c-.21-.2-.54-.3-.98-.3h-1.27v2.35Z"/><path class="cls-1" d="M757.04,128.14c-4.56,0-8.25,3.69-8.25,8.25s3.69,8.25,8.25,8.25,8.25-3.69,8.25-8.25-3.69-8.25-8.25-8.25m0,14.42c-3.41,0-6.18-2.76-6.18-6.18s2.76-6.17,6.18-6.17,6.17,2.76,6.17,6.17-2.76,6.18-6.17,6.18"/><g><path class="cls-1" d="M271.69,143.38v6.79h-17.44c-3.06,0-5.29,.84-6.69,2.53-1.4,1.69-2.1,4.44-2.1,8.25s.7,6.56,2.1,8.22c1.4,1.66,3.63,2.5,6.69,2.5h17.44v6.86h-18.11c-4.71,0-8.42-1.44-11.15-4.33-2.73-2.88-4.09-7.3-4.09-13.25s1.37-10.36,4.09-13.25c2.73-2.88,6.45-4.33,11.15-4.33h18.11Z"/><path class="cls-1" d="M408.03,143.38c2.17,0,4.04,.29,5.59,.87,1.55,.58,2.83,1.39,3.83,2.43,1,1.04,1.72,2.27,2.16,3.69,.44,1.42,.67,2.95,.67,4.59v16.51c0,1.29-.1,2.37-.3,3.26-.2,.89-.57,1.61-1.1,2.16-.53,.56-1.28,.96-2.23,1.23s-2.16,.4-3.63,.4h-16.44c-4.17,0-7.18-.95-9.02-2.86-1.84-1.91-2.76-4.53-2.76-7.85,0-1.6,.21-3.02,.63-4.26,.42-1.24,1.1-2.3,2.03-3.16s2.15-1.53,3.66-2c1.51-.47,3.35-.7,5.53-.7h16.71v-2.66c0-1.38-.41-2.53-1.23-3.46s-2.21-1.4-4.16-1.4h-21.03v-6.79h21.1Zm3.4,28.29c1.29,0,1.93-.6,1.93-1.8v-6.59h-16.57c-1.86,0-3.17,.37-3.93,1.1-.75,.73-1.13,1.74-1.13,3.03s.38,2.32,1.13,3.09c.75,.78,2.02,1.17,3.79,1.17h14.78Z"/><path class="cls-1" d="M562.04,143.38v6.79h-12.38c-3.02,0-4.53,1.51-4.53,4.53v23.83h-7.06v-24.9c0-3.55,.72-6.15,2.16-7.79,1.44-1.64,3.89-2.46,7.36-2.46h14.45Z"/><path class="cls-1" d="M716.52,128.14v35.35c0,5.1-1.1,8.89-3.29,11.35-2.2,2.46-5.4,3.69-9.62,3.69h-9.72c-4.71,0-8.42-1.44-11.15-4.33-2.73-2.88-4.09-7.3-4.09-13.25s1.37-10.36,4.09-13.25c2.73-2.88,6.45-4.33,11.15-4.33h15.51v-15.24h7.12Zm-14.98,43.53c2.84,0,4.86-.67,6.06-2,1.2-1.33,1.8-3.5,1.8-6.52v-12.98h-14.84c-3.06,0-5.29,.84-6.69,2.53-1.4,1.69-2.1,4.44-2.1,8.25s.7,6.56,2.1,8.22c1.4,1.66,3.63,2.5,6.69,2.5h6.99Z"/></g></g></svg>