<?xml version="1.0" encoding="UTF-8"?><svg id="Layer_2" xmlns="http://www.w3.org/2000/svg" viewBox="0 0 775.64 261.33"><defs><style>.cls-1{fill:#272727;}</style></defs><g id="Layer_1-2"><polygon class="cls-1" points="775.64 0 775.64 28.6 727.89 28.6 727.89 163.62 699.04 163.62 699.04 28.6 651.29 28.6 651.29 0 775.64 0"/><rect class="cls-1" x="597.24" y="0" width="25.94" height="29.82"/><rect class="cls-1" x="596.03" y="48.24" width="28.6" height="115.37"/><path class="cls-1" d="M511.19,0c9.21,0,17.13,1.33,23.75,4,6.63,2.66,12.08,6.21,16.36,10.66,4.28,4.44,7.43,9.66,9.45,15.63,2.02,5.98,3.03,12.21,3.03,18.67,0,5.17-.65,10.3-1.94,15.39-1.3,5.09-3.31,9.85-6.06,14.3-2.75,4.45-6.31,8.36-10.67,11.76-4.36,3.4-9.7,5.98-16,7.75l38.05,65.45h-31.75l-37.33-63.27h-42.66c-2.74,0-4.12,1.38-4.12,4.12v59.15h-28.6V98.9c0-9.21,2.02-15.84,6.06-19.88,4.04-4.04,10.58-6.06,19.63-6.06h63.75c4.04,0,7.52-.65,10.43-1.94,2.91-1.29,5.25-2.99,7.03-5.09,1.78-2.1,3.11-4.52,4-7.27,.89-2.74,1.33-5.57,1.33-8.48,0-5.82-1.81-10.87-5.45-15.15-3.64-4.28-9.42-6.42-17.34-6.42h-89.69V0h88.72Z"/><path class="cls-1" d="M383.46,95.14c-4.2-6.06-10.18-10.71-17.94-13.94,7.75-3.07,13.61-7.52,17.57-13.33,3.96-5.82,5.93-13.5,5.93-23.03,0-6.62-1.05-12.69-3.15-18.18-2.1-5.5-5.37-10.22-9.81-14.18-4.44-3.96-10.1-7.03-16.97-9.21-6.87-2.18-15.15-3.27-24.84-3.27h-71.99c-9.05,0-13.57,4.45-13.57,13.33V150.28c0,8.89,4.52,13.33,13.57,13.33h72.71c9.7,0,17.98-1.13,24.85-3.4,6.86-2.26,12.52-5.37,16.96-9.33,4.45-3.96,7.72-8.69,9.82-14.18,2.1-5.5,3.15-11.55,3.15-18.18,0-9.53-2.1-17.33-6.3-23.39M276.81,31.03c0-1.94,1.05-2.91,3.15-2.91h55.26c8.73,0,15.07,1.94,19.03,5.82,3.96,3.88,5.94,9.05,5.94,15.51,0,13.09-8.4,19.63-25.21,19.63h-58.17V31.03Zm78.05,98.65c-4.04,3.72-10.43,5.58-19.15,5.58h-55.75c-2.1,0-3.15-.89-3.15-2.67v-39.75h58.9c16.8,0,25.21,7.03,25.21,21.09,0,6.79-2.02,12.04-6.06,15.75"/><rect class="cls-1" x="181.79" y="0" width="25.94" height="29.82"/><rect class="cls-1" x="180.58" y="48.24" width="28.6" height="115.37"/><polygon class="cls-1" points="28.6 0 28.6 66.66 112.23 66.66 112.23 0 141.07 0 141.07 163.62 112.23 163.62 112.23 95.26 28.6 95.26 28.6 163.62 0 163.62 0 0 28.6 0"/><path class="cls-1" d="M765.17,205.9l-2.37-4.12h-1.29v4.12h-1.69v-10.3h3.56c.79,0,1.46,.14,2.01,.41,.55,.28,.96,.65,1.23,1.11,.27,.46,.41,.98,.41,1.55,0,.67-.19,1.28-.58,1.83-.39,.55-.99,.92-1.8,1.12l2.55,4.26h-2.02Zm-3.66-5.47h1.87c.64,0,1.11-.16,1.43-.47,.32-.32,.48-.74,.48-1.28s-.16-.95-.48-1.25c-.31-.3-.79-.45-1.44-.45h-1.87v3.45Z"/><path class="cls-1" d="M763.5,188.61c-6.7,0-12.14,5.43-12.14,12.14s5.44,12.14,12.14,12.14,12.14-5.43,12.14-12.14-5.43-12.14-12.14-12.14m0,21.23c-5.02,0-9.09-4.07-9.09-9.09s4.07-9.09,9.09-9.09,9.09,4.07,9.09,9.09-4.07,9.09-9.09,9.09"/><g><path class="cls-1" d="M49.09,209.59v9.99H23.42c-4.51,0-7.79,1.24-9.85,3.72-2.06,2.48-3.09,6.53-3.09,12.15s1.03,9.65,3.09,12.1c2.06,2.45,5.34,3.67,9.85,3.67h25.67v10.09H22.44c-6.93,0-12.4-2.12-16.41-6.37-4.02-4.24-6.03-10.74-6.03-19.5s2.01-15.25,6.03-19.5c4.02-4.25,9.49-6.37,16.41-6.37h26.65Z"/><path class="cls-1" d="M249.77,209.59c3.2,0,5.94,.43,8.23,1.27,2.29,.85,4.16,2.04,5.63,3.58,1.47,1.54,2.53,3.35,3.19,5.44,.65,2.09,.98,4.35,.98,6.76v24.3c0,1.89-.15,3.49-.44,4.8-.29,1.31-.83,2.37-1.62,3.18-.78,.82-1.88,1.42-3.28,1.81s-3.18,.59-5.34,.59h-24.2c-6.14,0-10.57-1.4-13.28-4.21-2.71-2.81-4.07-6.66-4.07-11.56,0-2.35,.31-4.44,.93-6.27,.62-1.83,1.62-3.38,2.99-4.65,1.37-1.27,3.17-2.25,5.39-2.94,2.22-.69,4.93-1.03,8.13-1.03h24.59v-3.92c0-2.02-.6-3.72-1.81-5.1s-3.25-2.06-6.12-2.06h-30.96v-9.99h31.06Zm5,41.64c1.89,0,2.84-.88,2.84-2.64v-9.7h-24.4c-2.74,0-4.67,.54-5.78,1.62-1.11,1.08-1.67,2.56-1.67,4.46s.55,3.41,1.67,4.56c1.11,1.14,2.97,1.71,5.59,1.71h21.75Z"/><path class="cls-1" d="M476.47,209.59v9.99h-18.22c-4.44,0-6.66,2.22-6.66,6.66v35.08h-10.39v-36.64c0-5.23,1.06-9.05,3.18-11.46,2.12-2.42,5.73-3.63,10.83-3.63h21.26Z"/><path class="cls-1" d="M703.85,187.15v52.03c0,7.51-1.62,13.08-4.85,16.71-3.23,3.63-7.95,5.44-14.16,5.44h-14.3c-6.93,0-12.4-2.12-16.41-6.37-4.02-4.24-6.03-10.74-6.03-19.5s2.01-15.25,6.03-19.5c4.02-4.25,9.49-6.37,16.41-6.37h22.83v-22.44h10.48Zm-22.05,64.08c4.18,0,7.15-.98,8.92-2.94,1.76-1.96,2.64-5.16,2.64-9.6v-19.11h-21.85c-4.51,0-7.79,1.24-9.85,3.72-2.06,2.48-3.09,6.53-3.09,12.15s1.03,9.65,3.09,12.1c2.06,2.45,5.34,3.67,9.85,3.67h10.29Z"/></g></g></svg>