<?xml version="1.0" encoding="UTF-8"?><svg id="Layer_2" xmlns="http://www.w3.org/2000/svg" viewBox="0 0 501.42 501.42"><defs><style>.cls-1{fill:#f3f2f3;fill-rule:evenodd;}</style></defs><g id="Layer_1-2"><g><polygon class="cls-1" points="55.94 55.93 120.86 55.93 120.86 214.96 380.56 214.96 380.56 0 241.73 0 241.73 55.93 324.64 55.93 324.64 159.06 176.79 159.06 176.79 0 0 0 0 445.5 55.94 445.5 55.94 55.93"/><polygon class="cls-1" points="445.5 55.93 501.42 55.93 501.42 501.42 324.64 501.42 324.64 342.37 176.79 342.37 176.79 445.5 259.71 445.5 259.71 501.42 120.86 501.42 120.86 286.45 380.56 286.45 380.56 445.5 445.5 445.5 445.5 55.93"/></g></g></svg>