<svg width="24" height="24" viewBox="0 0 24 24" fill="none" xmlns="http://www.w3.org/2000/svg">
<path fill-rule="evenodd" clip-rule="evenodd" d="M6 4C4.89543 4 4 4.89543 4 6V18C4 19.1046 4.89543 20 6 20H18C19.1046 20 20 19.1046 20 18V9C20 7.89543 19.1046 7 18 7H13C12.0557 7 11.1666 6.55542 10.6 5.8L9.55 4.4C9.36115 4.14819 9.06476 4 8.75 4H6ZM2 6C2 3.79086 3.79086 2 6 2H8.75C9.69427 2 10.5834 2.44458 11.15 3.2L12.2 4.6C12.3889 4.85181 12.6852 5 13 5H18C20.2091 5 22 6.79086 22 9V18C22 20.2091 20.2091 22 18 22H6C3.79086 22 2 20.2091 2 18V6Z" fill="#666666"/>
<path fill-rule="evenodd" clip-rule="evenodd" d="M12 10C12.5523 10 13 10.4477 13 11L13 14.5858L14.2929 13.2929C14.6834 12.9024 15.3166 12.9024 15.7071 13.2929C16.0976 13.6834 16.0976 14.3166 15.7071 14.7071L12.7071 17.7071C12.3166 18.0976 11.6834 18.0976 11.2929 17.7071L8.29289 14.7071C7.90237 14.3166 7.90237 13.6834 8.29289 13.2929C8.68342 12.9024 9.31658 12.9024 9.70711 13.2929L11 14.5858L11 11C11 10.4477 11.4477 10 12 10Z" fill="#666666"/>
</svg>
