<svg width="24" height="24" viewBox="0 0 24 24" fill="none" xmlns="http://www.w3.org/2000/svg">
<path fill-rule="evenodd" clip-rule="evenodd" d="M12 4C7.58172 4 4 7.58172 4 12C4 16.4183 7.58172 20 12 20C16.4183 20 20 16.4183 20 12C20 7.58172 16.4183 4 12 4ZM2 12C2 6.47715 6.47715 2 12 2C17.5228 2 22 6.47715 22 12C22 17.5228 17.5228 22 12 22C6.47715 22 2 17.5228 2 12Z" fill="#AEAEB4"/>
<path fill-rule="evenodd" clip-rule="evenodd" d="M10.8274 5.95227C10.3268 7.45402 10 9.59229 10 12C10 14.4077 10.3268 16.546 10.8274 18.0477C11.0794 18.8038 11.3575 19.3436 11.6177 19.6738C11.7455 19.8359 11.8494 19.9225 11.9186 19.9649C11.9515 19.9852 11.9736 19.9935 11.9847 19.9969C11.9948 20 11.999 20 11.9999 20H12C12.0007 20 12.0049 20.0001 12.0153 19.9969C12.0264 19.9935 12.0485 19.9852 12.0814 19.9649C12.1506 19.9225 12.2545 19.8359 12.3823 19.6738C12.6425 19.3436 12.9206 18.8038 13.1726 18.0477C13.6732 16.546 14 14.4077 14 12C14 9.59229 13.6732 7.45402 13.1726 5.95227C12.9206 5.19616 12.6425 4.65642 12.3823 4.32624C12.2545 4.16408 12.1506 4.07752 12.0814 4.03507C12.0485 4.01483 12.0264 4.00645 12.0153 4.00305C12.0052 3.99998 12.001 4 12.0001 4L12 4L11.9999 4C11.999 4 11.9948 3.99998 11.9847 4.00305C11.9736 4.00645 11.9515 4.01483 11.9186 4.03507C11.8494 4.07752 11.7455 4.16408 11.6177 4.32624C11.3575 4.65642 11.0794 5.19616 10.8274 5.95227ZM10.0469 3.08829C10.4956 2.51889 11.1481 2 12 2C12.8519 2 13.5044 2.51889 13.9531 3.08829C14.4108 3.66896 14.7791 4.44724 15.07 5.31981C15.6552 7.07541 16 9.43715 16 12C16 14.5629 15.6552 16.9246 15.07 18.6802C14.7791 19.5528 14.4108 20.331 13.9531 20.9117C13.5044 21.4811 12.8519 22 12 22C11.1481 22 10.4956 21.4811 10.0469 20.9117C9.58923 20.331 9.22085 19.5528 8.93 18.6802C8.3448 16.9246 8 14.5629 8 12C8 9.43715 8.3448 7.07541 8.93 5.31981C9.22085 4.44724 9.58923 3.66896 10.0469 3.08829Z" fill="#AEAEB4"/>
<path fill-rule="evenodd" clip-rule="evenodd" d="M4 12C4 12.0009 3.99998 12.0052 4.00305 12.0153C4.00645 12.0264 4.01483 12.0485 4.03507 12.0814C4.07752 12.1506 4.16408 12.2545 4.32624 12.3823C4.65642 12.6425 5.19616 12.9206 5.95227 13.1726C7.45402 13.6732 9.59229 14 12 14C14.4077 14 16.546 13.6732 18.0477 13.1726C18.8038 12.9206 19.3436 12.6425 19.6738 12.3823C19.8359 12.2545 19.9225 12.1506 19.9649 12.0814C19.9852 12.0485 19.9935 12.0264 19.9969 12.0153C20 12.0052 20 12.001 20 12.0001C20 11.9992 20 11.9948 19.9969 11.9847C19.9935 11.9736 19.9852 11.9516 19.9649 11.9186C19.9225 11.8494 19.8359 11.7455 19.6738 11.6177C19.3436 11.3575 18.8038 11.0794 18.0477 10.8274C16.546 10.3268 14.4077 10 12 10C9.59229 10 7.45402 10.3268 5.95227 10.8274C5.19616 11.0794 4.65642 11.3575 4.32624 11.6177C4.16408 11.7455 4.07752 11.8494 4.03507 11.9186C4.01483 11.9515 4.00645 11.9736 4.00305 11.9847C3.99998 11.9948 4 11.9991 4 12ZM5.31981 8.93C7.07541 8.3448 9.43715 8 12 8C14.5629 8 16.9246 8.3448 18.6802 8.93C19.5528 9.22085 20.331 9.58923 20.9117 10.0469C21.4811 10.4956 22 11.1481 22 12C22 12.8519 21.4811 13.5044 20.9117 13.9531C20.331 14.4108 19.5528 14.7791 18.6802 15.07C16.9246 15.6552 14.5629 16 12 16C9.43715 16 7.07541 15.6552 5.31981 15.07C4.44724 14.7791 3.66896 14.4108 3.08829 13.9531C2.51889 13.5044 2 12.8519 2 12C2 11.1481 2.51889 10.4956 3.08829 10.0469C3.66896 9.58923 4.44724 9.22085 5.31981 8.93Z" fill="#AEAEB4"/>
</svg>
