<svg width="24" height="24" viewBox="0 0 24 24" fill="none" xmlns="http://www.w3.org/2000/svg">
<path fill-rule="evenodd" clip-rule="evenodd" d="M4.96833 5.21552C7.38653 4.40893 9.83018 5.92369 10.5089 8.37614C10.9715 10.0473 10.5334 11.7996 9.46531 12.9995C9.68407 13.2828 9.92311 13.5552 10.1826 13.8149C10.4408 14.0733 10.7116 14.3115 10.9932 14.5295C12.1926 13.453 13.9502 13.01 15.6262 13.4745C18.0782 14.1542 19.5901 16.5997 18.7848 19.0178C18.2564 20.6044 17.2711 21.5684 15.9571 21.8857C14.7361 22.1805 13.4196 21.8671 12.2585 21.3844C9.91992 20.4123 7.61074 18.4974 6.55613 17.442C5.47664 16.3617 3.57003 14.0492 2.60671 11.715C2.12834 10.5559 1.82033 9.24432 2.11584 8.02892C2.43378 6.72133 3.39283 5.74099 4.96833 5.21552ZM8.58141 8.90962C8.16872 7.41853 6.79749 6.71373 5.60116 7.11276C4.54956 7.4635 4.18482 7.98488 4.05922 8.50144C3.91121 9.11019 4.03992 9.94518 4.45545 10.952C5.27992 12.9497 6.9898 15.0465 7.97088 16.0283C8.92821 16.9863 11.0228 18.7048 13.0262 19.5376C14.0361 19.9574 14.8752 20.0894 15.4876 19.9415C16.007 19.8161 16.5331 19.4492 16.8872 18.3859C17.2866 17.1867 16.5807 15.8145 15.092 15.4019C13.9841 15.0948 12.8451 15.4506 12.1672 16.1766C11.7294 16.6454 10.895 16.9127 10.1851 16.4171C9.68553 16.0684 9.21113 15.6722 8.76787 15.2286C8.3239 14.7843 7.92751 14.3088 7.57877 13.8081C7.08635 13.1012 7.3491 12.27 7.81452 11.8312C8.53515 11.1519 8.88742 10.0153 8.58141 8.90962Z" fill="#AEAEB4"/>
</svg>
