<svg width="33" height="24" viewBox="0 0 33 24" fill="none" xmlns="http://www.w3.org/2000/svg">
<path fill-rule="evenodd" clip-rule="evenodd" d="M12 10C13.1046 10 14 10.8954 14 12C14 13.1046 13.1046 14 12 14C10.8954 14 10 13.1046 10 12C10 10.8954 10.8954 10 12 10Z" fill="#888888"/>
<path fill-rule="evenodd" clip-rule="evenodd" d="M12 17C13.1046 17 14 17.8954 14 19C14 20.1046 13.1046 21 12 21C10.8954 21 10 20.1046 10 19C10 17.8954 10.8954 17 12 17Z" fill="#888888"/>
<path fill-rule="evenodd" clip-rule="evenodd" d="M12 3C13.1046 3 14 3.89543 14 5C14 6.10457 13.1046 7 12 7C10.8954 7 10 6.10457 10 5C10 3.89543 10.8954 3 12 3Z" fill="#888888"/>
<path fill-rule="evenodd" clip-rule="evenodd" d="M21 10C22.1046 10 23 10.8954 23 12C23 13.1046 22.1046 14 21 14C19.8954 14 19 13.1046 19 12C19 10.8954 19.8954 10 21 10Z" fill="#888888"/>
<path fill-rule="evenodd" clip-rule="evenodd" d="M21 17C22.1046 17 23 17.8954 23 19C23 20.1046 22.1046 21 21 21C19.8954 21 19 20.1046 19 19C19 17.8954 19.8954 17 21 17Z" fill="#888888"/>
<path fill-rule="evenodd" clip-rule="evenodd" d="M21 3C22.1046 3 23 3.89543 23 5C23 6.10457 22.1046 7 21 7C19.8954 7 19 6.10457 19 5C19 3.89543 19.8954 3 21 3Z" fill="#888888"/>
</svg>
