<svg width="24" height="24" viewBox="0 0 24 24" fill="none" xmlns="http://www.w3.org/2000/svg">
<path fill-rule="evenodd" clip-rule="evenodd" d="M10.2864 3.90806C11.0637 2.61642 12.9363 2.61642 13.7136 3.90806L15.6008 7.0439L19.1663 7.86969C20.635 8.20983 21.2136 9.99077 20.2254 11.1292L17.8262 13.893L18.1427 17.5392C18.273 19.0411 16.758 20.1418 15.37 19.5537L12 18.126L8.63004 19.5537C7.24196 20.1418 5.72701 19.0411 5.85735 17.5392L6.17379 13.893L3.7746 11.1292C2.78638 9.99077 3.36504 8.20983 4.83367 7.86969L8.3992 7.04391L10.2864 3.90806ZM12 4.93933L10.1128 8.07517C9.83357 8.5392 9.37807 8.87014 8.85046 8.99233L5.28493 9.81812L7.68412 12.582C8.03914 12.9909 8.21312 13.5264 8.1663 14.0659L7.84986 17.7122L11.2198 16.2845C11.7185 16.0732 12.2815 16.0732 12.7802 16.2845L16.1501 17.7122L15.8337 14.0659C15.7869 13.5264 15.9609 12.9909 16.3159 12.582L18.7151 9.81812L15.1495 8.99233C14.6219 8.87014 14.1664 8.5392 13.8872 8.07517L12 4.93933Z" fill="#ABCAFF"/>
</svg>
